<?xml version="1.0" encoding="UTF-8" standalone="no"?>
<svg
   xmlns:dc="http://purl.org/dc/elements/1.1/"
   xmlns:cc="http://creativecommons.org/ns#"
   xmlns:rdf="http://www.w3.org/1999/02/22-rdf-syntax-ns#"
   xmlns:svg="http://www.w3.org/2000/svg"
   xmlns="http://www.w3.org/2000/svg"
   xmlns:sodipodi="http://sodipodi.sourceforge.net/DTD/sodipodi-0.dtd"
   xmlns:inkscape="http://www.inkscape.org/namespaces/inkscape"
   viewBox="0 0 734.69 207.4"
   version="1.1"
   id="svg18"
   sodipodi:docname="beFree_white_1421633637_FR.gif"
   inkscape:version="0.92.4 (5da689c313, 2019-01-14)">
  <metadata
     id="metadata24">
    <rdf:RDF>
      <cc:Work
         rdf:about="">
        <dc:format>image/svg+xml</dc:format>
        <dc:type
           rdf:resource="http://purl.org/dc/dcmitype/StillImage" />
        <dc:title></dc:title>
      </cc:Work>
    </rdf:RDF>
  </metadata>
  <defs
     id="defs22" />
  <sodipodi:namedview
     pagecolor="#ffffff"
     bordercolor="#666666"
     borderopacity="1"
     objecttolerance="10"
     gridtolerance="10"
     guidetolerance="10"
     inkscape:pageopacity="0"
     inkscape:pageshadow="2"
     inkscape:window-width="2560"
     inkscape:window-height="1027"
     id="namedview20"
     showgrid="false"
     inkscape:zoom="3.9853543"
     inkscape:cx="492.0516"
     inkscape:cy="43.228586"
     inkscape:window-x="-8"
     inkscape:window-y="-8"
     inkscape:window-maximized="1"
     inkscape:current-layer="svg18" />
  <g
     transform="translate(0,-6.1035157e-6)"
     id="g42"
     style="fill:#ffffff">
    <path
       inkscape:connector-curvature="0"
       class="st2"
       d="m 50.8,137.9 v -9.4 c 0,-1.9 -0.4,-3.2 -1.1,-4 -0.8,-0.8 -2,-1.1 -3.8,-1.1 H 22 c -1.8,0 -3.1,0.4 -3.8,1.1 -0.8,0.8 -1.1,2.1 -1.1,4 v 10 c 0,2.1 0.5,3.6 1.4,4.5 0.9,0.9 2.6,1.7 4.9,2.2 l 25.4,5.5 c 6.5,1.4 11.3,3.5 14.5,6.3 3.2,2.8 4.8,7.1 4.8,13 v 14.2 c 0,12.5 -6.3,18.8 -18.8,18.8 H 19.5 C 7,203 0.7,196.7 0.7,184.2 v -11 h 15.7 v 10.3 c 0,1.9 0.4,3.2 1.1,4 0.8,0.8 2.1,1.1 4,1.1 H 47 c 1.8,0 3.1,-0.4 3.8,-1.1 0.8,-0.8 1.1,-2.1 1.1,-4 v -11.3 c 0,-2.1 -0.5,-3.6 -1.4,-4.5 -0.9,-0.9 -2.6,-1.6 -4.9,-2.1 L 20.2,160 C 13.7,158.6 8.9,156.5 5.7,153.7 2.5,150.9 0.9,146.6 0.9,140.7 V 127.8 C 0.9,115.3 7.2,109 19.7,109 h 28.1 c 12.5,0 18.8,6.3 18.8,18.8 v 10.1 z"
       id="path20"
       style="fill:#ffffff" />
    <path
       inkscape:connector-curvature="0"
       class="st2"
       d="M 129.1,203.1 H 96.2 c -12.5,0 -18.8,-6.3 -18.8,-18.8 v -56.4 c 0,-12.5 6.3,-18.8 18.8,-18.8 h 32.9 c 12.5,0 18.8,6.3 18.8,18.8 v 56.4 c 0,12.5 -6.2,18.8 -18.8,18.8 z M 93.5,128.7 v 54.6 c 0,1.8 0.4,3.1 1.1,3.8 0.8,0.8 2,1.1 3.8,1.1 h 28.4 c 1.8,0 3.1,-0.4 3.8,-1.1 0.8,-0.8 1.1,-2 1.1,-3.8 v -54.6 c 0,-1.8 -0.4,-3.1 -1.1,-3.8 -0.8,-0.8 -2,-1.1 -3.8,-1.1 H 98.5 c -1.8,0 -3.1,0.4 -3.8,1.1 -0.8,0.8 -1.2,2.1 -1.2,3.8 z"
       id="path22"
       style="fill:#ffffff" />
    <path
       inkscape:connector-curvature="0"
       class="st2"
       d="M 195.8,203.1 H 179.7 V 170.6 L 148.1,109 h 17.5 l 22.3,44.6 22.3,-44.6 h 17.2 l -31.6,61.5 z"
       id="path24"
       style="fill:#ffffff" />
    <path
       inkscape:connector-curvature="0"
       class="st2"
       d="m 232.1,109 h 62.1 v 14.8 h -46 v 23.9 H 286 v 14.5 h -37.8 v 26.1 h 46 v 14.8 h -62.1 z"
       id="path26"
       style="fill:#ffffff" />
    <path
       inkscape:connector-curvature="0"
       class="st2"
       d="m 299.5,191 47,-67.6 H 301.9 V 109 h 64.3 v 12 l -47.1,67.7 h 46.8 v 14.4 h -66.4 z"
       id="path28"
       style="fill:#ffffff" />
    <path
       inkscape:connector-curvature="0"
       class="st2"
       d="m 412,76.9 h 25.7 l -21.2,126.2 h -25.7 z"
       id="path30"
       style="fill:#ffffff" />
    <path
       inkscape:connector-curvature="0"
       class="st2"
       d="m 448.8,109.8 h 25.9 L 459,203.1 H 433.3 Z M 454,75.7 h 26.9 l -4.4,25.5 h -26.9 z"
       id="path32"
       style="fill:#ffffff" />
    <path
       inkscape:connector-curvature="0"
       class="st2"
       d="m 496.8,76.9 h 25.7 l -7.2,42.8 c 3.4,-5.3 8.5,-12.1 19.9,-12.1 23.8,0 24.4,24.2 24.4,32.7 0,15.5 -3.8,38 -14.2,52.4 -5.7,7.6 -15.7,12.7 -26.5,12.7 -18.9,0 -21.8,-12.7 -22.7,-16.6 -2.3,4.7 -3.6,7.8 -6.1,14.4 h -14.4 z m 29.7,98.3 c 4.7,-15.9 7,-29.5 7,-37.3 0,-4.9 -1.1,-12.7 -8.1,-12.7 -7.6,0 -10.6,8.5 -11.2,10.2 -1.1,3.2 -8.1,27.4 -8.1,40.5 0,1.7 0.2,11.5 9.5,11.5 5.6,0.1 9,-5 10.9,-12.2 z"
       id="path34"
       style="fill:#ffffff" />
    <path
       inkscape:connector-curvature="0"
       class="st2"
       d="m 577,109.8 h 22.1 l -3.2,18.7 c 7.4,-13.4 13.8,-20.6 30.1,-20.1 l -3.6,26.7 c -8.5,0 -18.9,0.4 -24.4,13.2 -2.1,5.1 -4.9,19.5 -5.9,25.4 l -4.9,29.3 h -25.7 z"
       id="path36"
       style="fill:#ffffff" />
    <path
       inkscape:connector-curvature="0"
       class="st2"
       d="m 647.6,160.7 c -0.4,2.5 -0.8,6.2 -0.8,10.6 0,3.2 0,16.3 10.8,16.3 9.1,0 12.3,-7 14.9,-16.1 l 21,3.8 c -7.4,22.9 -19.7,30.1 -37.5,30.1 -11,0 -18.7,-3 -23.8,-8.3 -5.9,-5.9 -11,-15.1 -11,-31.8 0,-29.9 16.1,-57.7 43.5,-57.7 12.5,0 22.5,5.9 28.2,15.5 2.8,5.1 5.3,11.4 5.3,24.2 0,6.4 -0.4,9.5 -0.9,13.4 z m 26.8,-14.8 c 0.4,-2.1 0.8,-4.5 0.8,-8.3 0,-2.1 0,-14 -10.2,-14 -11.5,0 -14.4,16.3 -15.3,22.3 z"
       id="path38"
       style="fill:#ffffff" />
    <path
       inkscape:connector-curvature="0"
       class="st2"
       d="m 704.1,203.1 4.7,-28 h 25.7 l -4.7,28 z"
       id="path40"
       style="fill:#ffffff" />
  </g>
</svg>
