<?xml version="1.0" encoding="UTF-8" standalone="no"?>
<!-- Generator: Adobe Illustrator 23.0.6, SVG Export Plug-In . SVG Version: 6.00 Build 0)  -->

<svg
   xmlns:dc="http://purl.org/dc/elements/1.1/"
   xmlns:cc="http://creativecommons.org/ns#"
   xmlns:rdf="http://www.w3.org/1999/02/22-rdf-syntax-ns#"
   xmlns:svg="http://www.w3.org/2000/svg"
   xmlns="http://www.w3.org/2000/svg"
   xmlns:sodipodi="http://sodipodi.sourceforge.net/DTD/sodipodi-0.dtd"
   xmlns:inkscape="http://www.inkscape.org/namespaces/inkscape"
   version="1.1"
   id="Layer_1"
   x="0px"
   y="0px"
   viewBox="0 0 89.1 33"
   style="enable-background:new 0 0 89.1 33;"
   xml:space="preserve"
   sodipodi:docname="new_2453374_FR.gif"
   inkscape:version="0.92.4 (5da689c313, 2019-01-14)"><metadata
   id="metadata30"><rdf:RDF><cc:Work
       rdf:about=""><dc:format>image/svg+xml</dc:format><dc:type
         rdf:resource="http://purl.org/dc/dcmitype/StillImage" /><dc:title></dc:title></cc:Work></rdf:RDF></metadata><defs
   id="defs28" /><sodipodi:namedview
   pagecolor="#ffffff"
   bordercolor="#666666"
   borderopacity="1"
   objecttolerance="10"
   gridtolerance="10"
   guidetolerance="10"
   inkscape:pageopacity="0"
   inkscape:pageshadow="2"
   inkscape:window-width="2560"
   inkscape:window-height="1027"
   id="namedview26"
   showgrid="false"
   inkscape:zoom="11.618455"
   inkscape:cx="44.793442"
   inkscape:cy="16.5"
   inkscape:window-x="-8"
   inkscape:window-y="-8"
   inkscape:window-maximized="1"
   inkscape:current-layer="Layer_1" />
<style
   type="text/css"
   id="style2">
	.st0{fill:url(#SVGID_1_);}
	.st1{enable-background:new    ;}
	.st2{fill:#0071CE;}
</style>
<g
   transform="translate(5383.139 4619)"
   id="g23">
	<g
   transform="translate(-5768.207 -4829)"
   id="g13">
		
			<linearGradient
   id="SVGID_1_"
   gradientUnits="userSpaceOnUse"
   x1="128.4074"
   y1="606.1629"
   x2="128.9594"
   y2="605.5699"
   gradientTransform="matrix(87.514 0 0 -23 -10818.9385 14160)">
			<stop
   offset="0"
   style="stop-color:#F9F9F9"
   id="stop4" />
			<stop
   offset="1"
   style="stop-color:#DDDDDD"
   id="stop6" />
		</linearGradient>
		<path
   class="st0"
   d="M386.3,233l3.9-23h83.6l-3.9,23H386.3z"
   id="path9" />
		<path
   d="M474.1,210h-85l-4,24l9,9l0-9h76L474.1,210z M386.3,233l3.7-22h83l-3.7,22H386.3z"
   id="path11" />
	</g>
	
</g>
<g
   id="g41"
   style="fill:#0071ce;fill-opacity:1"><path
     inkscape:connector-curvature="0"
     class="st5"
     d="m 11.6,6 4.6,9.5 V 6 h 1.3 V 18 H 16 L 11,7.8 V 18 H 9.7 V 6 Z"
     id="path27"
     style="fill:#0071ce;fill-opacity:1" /><path
     inkscape:connector-curvature="0"
     class="st5"
     d="m 29,12 c 0,2.6 -0.6,6.2 -4.2,6.2 -3.7,0 -4.3,-3.9 -4.3,-6.2 0,-2.5 0.6,-6.3 4.3,-6.3 3.5,0 4.2,3.6 4.2,6.3 z M 22.6,8.2 c -0.5,1 -0.7,2.5 -0.7,3.8 0,1.3 0.2,2.8 0.7,3.7 0.5,0.9 1.1,1.3 2.1,1.3 1,0 1.6,-0.5 2,-1.3 0.5,-1 0.7,-2.5 0.7,-3.8 0,-1.4 -0.2,-2.8 -0.7,-3.8 C 26.4,7.5 25.8,7 24.7,7 23.6,7 23.1,7.4 22.6,8.2 Z"
     id="path29"
     style="fill:#0071ce;fill-opacity:1" /><path
     inkscape:connector-curvature="0"
     class="st5"
     d="m 33.5,6 v 7.9 c 0,1.6 0,3.1 2.2,3.1 C 38,17 38,15.4 38,13.8 V 6 h 1.4 v 7.8 c 0,1.8 0,4.5 -3.7,4.5 -3.5,0 -3.6,-2.5 -3.6,-4.3 V 6 Z"
     id="path31"
     style="fill:#0071ce;fill-opacity:1" /><path
     inkscape:connector-curvature="0"
     class="st5"
     d="m 43.1,6 2.6,9.9 2.7,-9.9 h 1.4 L 46.5,18 H 45 L 41.7,6 Z"
     id="path33"
     style="fill:#0071ce;fill-opacity:1" /><path
     inkscape:connector-curvature="0"
     class="st5"
     d="m 58.6,6 v 1.2 h -5.1 v 4 h 4 v 1.2 h -4 v 4.4 h 5.2 V 18 H 52 V 6 Z"
     id="path35"
     style="fill:#0071ce;fill-opacity:1" /><path
     inkscape:connector-curvature="0"
     class="st5"
     d="m 65.4,6 3.2,12 H 67.1 L 66.2,14.6 H 62.6 L 61.8,18 H 60.3 L 63.7,6 Z m 0.6,7.4 -1.5,-6 -1.5,6 z"
     id="path37"
     style="fill:#0071ce;fill-opacity:1" /><path
     inkscape:connector-curvature="0"
     class="st5"
     d="m 72.3,6 v 7.9 c 0,1.6 0,3.1 2.2,3.1 2.3,0 2.3,-1.6 2.3,-3.2 V 6 h 1.4 v 7.8 c 0,1.8 0,4.5 -3.7,4.5 -3.5,0 -3.6,-2.5 -3.6,-4.3 V 6 Z"
     id="path39"
     style="fill:#0071ce;fill-opacity:1" /></g></svg>