<?xml version="1.0" encoding="UTF-8" standalone="no"?>
<!-- Generator: Adobe Illustrator 23.0.6, SVG Export Plug-In . SVG Version: 6.00 Build 0)  -->

<svg
   version="1.1"
   id="Layer_1"
   x="0px"
   y="0px"
   viewBox="0 0 116.9 33"
   style="enable-background:new 0 0 116.9 33;"
   xml:space="preserve"
   sodipodi:docname="rollback_493641240_FR.gif"
   inkscape:version="1.2.2 (732a01da63, 2022-12-09)"
   xmlns:inkscape="http://www.inkscape.org/namespaces/inkscape"
   xmlns:sodipodi="http://sodipodi.sourceforge.net/DTD/sodipodi-0.dtd"
   xmlns="http://www.w3.org/2000/svg"
   xmlns:svg="http://www.w3.org/2000/svg"><defs
   id="defs38">
	
	
<pattern
   id="EMFhbasepattern"
   patternUnits="userSpaceOnUse"
   width="6"
   height="6"
   x="0"
   y="0" /><pattern
   id="EMFhbasepattern-2"
   patternUnits="userSpaceOnUse"
   width="6"
   height="6"
   x="0"
   y="0" /><pattern
   id="EMFhbasepattern-5"
   patternUnits="userSpaceOnUse"
   width="6"
   height="6"
   x="0"
   y="0" /><pattern
   id="EMFhbasepattern-0"
   patternUnits="userSpaceOnUse"
   width="6"
   height="6"
   x="0"
   y="0" /></defs><sodipodi:namedview
   id="namedview36"
   pagecolor="#ffffff"
   bordercolor="#000000"
   borderopacity="0.25"
   inkscape:showpageshadow="2"
   inkscape:pageopacity="0.0"
   inkscape:pagecheckerboard="0"
   inkscape:deskcolor="#d1d1d1"
   showgrid="false"
   showguides="true"
   inkscape:zoom="11.093762"
   inkscape:cx="51.830929"
   inkscape:cy="22.98589"
   inkscape:window-width="1920"
   inkscape:window-height="1009"
   inkscape:window-x="-8"
   inkscape:window-y="-8"
   inkscape:window-maximized="1"
   inkscape:current-layer="Layer_1"><sodipodi:guide
     position="62.411074,27.010083"
     orientation="0,-1"
     id="guide1446"
     inkscape:locked="false" /><sodipodi:guide
     position="63.860248,15.126859"
     orientation="0,-1"
     id="guide1498"
     inkscape:locked="false" /></sodipodi:namedview>
<style
   type="text/css"
   id="style2">
	.st0{fill:url(#SVGID_1_);}
	.st1{enable-background:new    ;}
	.st2{fill:#0071CE;}
</style>
<g
   transform="translate(-385.068,-210)"
   id="g13">
		
			<linearGradient
   id="SVGID_1_"
   gradientUnits="userSpaceOnUse"
   x1="140.5704"
   y1="606.1629"
   x2="141.12241"
   y2="605.56989"
   gradientTransform="matrix(115.748,0,0,-23,-15841.83,14160)">
			<stop
   offset="0"
   style="stop-color:#F9F9F9"
   id="stop4" />
			<stop
   offset="1"
   style="stop-color:#DDDDDD"
   id="stop6" />
		</linearGradient>
		<path
   class="st0"
   d="m 386.3,233 3.9,-23 H 502 l -3.9,23 z"
   id="path9"
   style="fill:url(#SVGID_1_)" />
		<path
   d="M 502,210 H 389.1 l -4,24 9,9 v -9 H 498 Z m -115.7,23 3.7,-22 h 110.9 l -3.7,22 z"
   id="path11" />
	</g>
<g
   aria-label="RÉDUCTION"
   id="text5421"
   style="font-size:18.025px;line-height:125%;font-family:'ITC Franklin Gothic Std Bk Cd';letter-spacing:0px;word-spacing:0px;stroke-width:0.75104"><path
     d="M 22.01376,5.8869379 V 17.909613 h 1.460025 v -5.245275 h 2.3072 l 2.0188,5.245275 h 1.568175 l -2.253125,-5.58775 c 0.522725,-0.25235 1.98275,-0.97335 1.98275,-3.1543752 0,-1.3158249 -0.5768,-2.1810249 -1.1536,-2.6136249 -0.847175,-0.6489 -2.2351,-0.666925 -2.433375,-0.666925 z m 3.3887,1.207675 c 0.90125,0 2.2351,0.32445 2.2351,2.0548499 0,1.2978002 -0.6489,2.3072002 -2.34325,2.3072002 H 23.473785 V 7.0946129 Z"
     style="fill:#0071ce"
     id="path6906" /><path
     d="M 31.224529,5.8869379 V 17.909613 h 6.687275 v -1.207675 h -5.22725 v -4.416125 h 4.00155 v -1.207675 h -4.00155 V 7.0946129 h 5.08305 v -1.207675 z m 2.181025,-2.0007749 0.4326,0.7930999 3.478825,-1.0634749 -0.6489,-1.2257 z"
     style="fill:#0071ce"
     id="path6908" /><path
     d="m 39.516011,17.909613 h 2.5956 c 3.803275,0 5.497625,-2.902025 5.497625,-6.09245 0,-2.3252252 -1.027425,-5.9302251 -5.497625,-5.9302251 h -2.5956 z M 40.976036,7.0946129 h 1.135575 c 2.5956,0 3.947475,1.9466999 3.947475,4.8487251 0,2.361275 -1.0094,4.7586 -3.947475,4.7586 h -1.135575 z"
     style="fill:#0071ce"
     id="path6910" /><path
     d="m 49.646065,5.8869379 v 7.9490251 c 0,1.8025 0.09013,4.326 3.605,4.326 3.695125,0 3.695125,-2.6677 3.695125,-4.4702 V 5.8869379 h -1.3699 v 7.8769251 c 0,1.568175 0,3.1724 -2.27115,3.1724 -2.19905,0 -2.19905,-1.5141 -2.19905,-3.1003 V 5.8869379 Z"
     style="fill:#0071ce"
     id="path6912" /><path
     d="m 65.580168,14.142388 c -0.4326,2.072875 -0.955325,2.793875 -2.3072,2.793875 -2.4514,0 -2.721775,-3.35265 -2.721775,-5.028975 0,-1.18965 0.0721,-5.0470001 2.721775,-5.0470001 1.748425,0 2.072875,1.604225 2.3072,2.7758499 l 1.387925,-0.342475 c -0.2163,-1.0995249 -0.775075,-3.6590749 -3.731175,-3.6590749 -3.983525,0 -4.235875,4.6684751 -4.235875,6.3087501 0,2.3793 0.54075,6.218625 4.1818,6.218625 2.7398,0 3.3887,-1.892625 3.71315,-3.695125 z"
     style="fill:#0071ce"
     id="path6914" /><path
     d="m 67.040188,5.8869379 v 1.2257 h 2.865975 V 17.909613 h 1.460025 V 7.1126379 h 2.883999 v -1.2257 z"
     style="fill:#0071ce"
     id="path6916" /><path
     d="M 75.133408,5.8869379 V 17.909613 h 1.460025 V 5.8869379 Z"
     style="fill:#0071ce"
     id="path6918" /><path
     d="m 82.974286,5.6345879 c -3.6771,0 -4.307975,3.7491999 -4.307975,6.2727001 0,2.397325 0.5768,6.254675 4.307975,6.254675 3.586975,0 4.235875,-3.623025 4.235875,-6.254675 0,-2.6857252 -0.666925,-6.2727001 -4.235875,-6.2727001 z m -0.03605,1.207675 c 1.135575,0 1.676325,0.54075 2.072875,1.2978 0.5047,0.9372999 0.68495,2.3793001 0.68495,3.7672251 0,1.243725 -0.1442,2.757825 -0.68495,3.767225 -0.414575,0.775075 -0.991375,1.279775 -2.036825,1.279775 -1.027425,0 -1.640275,-0.39655 -2.108925,-1.2978 -0.5047,-0.955325 -0.68495,-2.397325 -0.68495,-3.7492 0,-1.279775 0.162225,-2.7758502 0.68495,-3.7852501 0.4326,-0.811125 1.027425,-1.279775 2.072875,-1.279775 z"
     style="fill:#0071ce"
     id="path6920" /><path
     d="M 89.210937,5.8869379 V 17.909613 h 1.26175 V 7.6714129 l 5.010949,10.2382001 h 1.442 V 5.8869379 h -1.26175 V 15.386113 L 91.067512,5.8869379 Z"
     style="fill:#0071ce"
     id="path6922" /></g></svg>
