<svg viewBox="0 0 734.69 207.4" xmlns="http://www.w3.org/2000/svg"><g fill="#fff"><path d="m267.64 89.68h-15.78l5-29.79h15.74c.59-2.93 1.17-5.85 1.47-7 4.67-25.41 9.05-34.47 20.15-43.52 8.18-6.45 18.11-9.37 31.55-9.37a119.52 119.52 0 0 1 19.57 1.75l-3.21 32.14a52.43 52.43 0 0 0 -10.81-1.17c-13.44 0-16.94 4.67-20.15 27.17h23.07l-5 29.79h-21.58l-19.28 114.22h-39.73z"/><path d="m348.84 59.89h34.16l-4.66 28.91c12.56-22.78 23.37-31 41.77-31h4.68l-5.85 41.2c-13.73-.29-21 1.46-28.62 7.59-8.48 7.89-11.11 14.9-18.12 52l-7.59 45.28h-39.73z"/><path d="m463.63 138.46a118.43 118.43 0 0 0 -1.17 16.36c0 16.65 5.55 25.12 16.65 25.12 11.68 0 17.53-6.42 23.08-24.83l32.42 5.89c-10.52 32.71-27.45 46.44-57.84 46.44-34.77-.04-53.77-22.24-53.77-61.97 0-51.11 28.63-89.09 67.19-89.09 19 0 34.76 8.77 43.53 24.24 5.84 9.65 8.18 20.45 8.18 37.1a128.06 128.06 0 0 1 -1.46 20.74zm41.48-22.78a67.5 67.5 0 0 0 1.17-12.85c0-13.73-5.84-21.62-15.78-21.62-12.27 0-19.86 10.81-23.66 34.47z"/><path d="m598 138.46a118.43 118.43 0 0 0 -1.17 16.36c0 16.65 5.55 25.12 16.65 25.12 11.68 0 17.53-6.42 23.08-24.83l32.44 5.89c-10.52 32.71-27.45 46.44-57.84 46.44-34.76 0-53.75-22.2-53.75-61.93 0-51.11 28.63-89.09 67.19-89.09 19 0 34.76 8.77 43.52 24.24 5.85 9.65 8.19 20.45 8.19 37.1a129.2 129.2 0 0 1 -1.46 20.74zm41.48-22.78a67.5 67.5 0 0 0 1.17-12.85c0-13.73-5.85-21.62-15.78-21.62-12.28 0-19.87 10.79-23.67 34.47z"/><path d="m687.66 203.9 7.34-43.23h39.72l-7.3 43.23z"/><path d="m0 59.7h73.33c19.57 0 28.84 9.27 28.84 28.84v19.57c0 10.51-4.12 17.51-13.18 22 10.3 3.92 14.83 11.54 14.83 22v22.87c0 19.57-9.27 28.84-28.84 28.84h-74.98zm69.83 59.74c5.56 0 7.62-2.06 7.62-7.83v-21.83c0-5.57-2.06-7.62-7.62-7.62h-45.11v37.28zm1.65 62c5.56 0 7.62-2.06 7.62-7.62v-25.33c0-5.57-2.06-7.63-7.62-7.63h-46.76v40.58z"/><path d="m120.51 59.7h95v22.66h-70.28v36.64h57.88v22.25h-57.88v40h70.24v22.65h-95z"/></g></svg>