<svg height="45.506" viewBox="0 0 267.933 45.506" width="267.933" xmlns="http://www.w3.org/2000/svg"><path d="m7408.715 7790.507-3.816-31.393h8.8l1.011 21.757h.623l8.692-21.757h8.925l-14.763 31.393zm-28.669-.083v.014c-3.055 0-6.111.068-9.162-.015-5.366-.148-7.678-3.109-6.725-8.419q2.525-14.069 5.009-28.149c1.047-5.924 4.062-8.632 10.118-8.784 4.707-.118 9.417-.059 14.125-.029a36.348 36.348 0 0 1 5.323.273c3.862.6 5.622 2.815 5.118 6.645-.588 4.471-1.4 8.912-2.167 13.358q-1.336 7.8-2.766 15.575a21.045 21.045 0 0 1 -1.1 4.033c-1.513 3.759-4.6 5.3-8.427 5.469-1.2.053-2.4.069-3.6.069-1.916 0-3.832-.04-5.747-.04zm.461-33.108c-.522 3.639-1.318 7.239-1.963 10.863-.612 3.435-1.18 6.878-1.759 10.32-.243 1.445.3 2.178 1.847 2.093 1.014-.057 2.033-.011 3.05-.011 1.08 0 2.161-.039 3.239.01a2.3 2.3 0 0 0 2.577-2.227c1.251-7.061 2.476-14.125 3.755-21.181.293-1.613-.335-2.262-1.889-2.254-2.032.011-4.065.018-6.1-.005h-.074c-1.598-.002-2.431.631-2.684 2.392zm-53.507 33.084s2.267-12.429 2.985-16.171a9.494 9.494 0 0 1 6.336-7.3c4.911-1.9 11.16-4.027 16.134-5.755 1.727-.62 1.889-3.513 1.913-5.6.005-.465-.936-.864-1.45-.892-1.9-.1-4.131-.076-6.04-.058a1.86 1.86 0 0 0 -1.987 1.873 19.129 19.129 0 0 1 -.449 2.757l-11.511-.025c.717-6.135 2.139-11.562 6.445-13.154a14.579 14.579 0 0 1 4.618-.974q7.824-.182 15.651-.017c2.635.059 5.311.456 6.55 3.333a5.594 5.594 0 0 1 .535 2.754c-.511 3.962-.967 7.953-1.856 11.839-.793 3.471-3.415 5.614-6.664 6.817-5 1.851-9.613 3.389-14.639 5.161-2.538.8-2.8 5.449-2.8 5.449l21.271.032-1.658 9.966zm103.242-.133.643-1.552h158.015l-.245 1.552zm151.8-6.72 2.852-16.189-7.068 12.775h-4.5l-3.133-12.775-2.852 16.189h-7.141l4.938-28.119h8.474l3.494 14.781 8.272-14.781h8.874l-4.94 28.119zm-45.136 0 4.94-28.119h19.436l-1.085 6.266h-11.886l-.762 4.378h9.4l-1.085 6.187h-9.4l-.883 5.021h11.887l-1.125 6.267zm-17.427 0 3.815-21.692h-6.827l1.125-6.427h21.2l-1.124 6.427h-6.828l-3.815 21.692zm-24.777 0c-3.615 0-5.019-1.768-4.377-5.464l.684-3.856h7.549l-.442 2.571c-.121.563 0 .724.563.724h4.859c.563 0 .763-.161.883-.724l.4-2.45c.081-.562-.081-.684-.644-.844l-6.947-2.048c-3.734-1.085-5.34-1.808-4.658-5.665l.843-4.9c.683-3.7 2.691-5.462 6.3-5.462h10.161c3.615 0 5.06 1.766 4.377 5.462l-.6 3.576h-7.548l.4-2.29c.08-.563-.041-.723-.6-.723h-4.337c-.522 0-.723.16-.8.723l-.4 2.169c-.121.563 0 .684.643.884l6.986 2.008c3.736 1.045 5.342 1.808 4.66 5.665l-.924 5.181c-.643 3.7-2.691 5.464-6.305 5.464zm-22.729 0 1.525-8.717-5.341-19.4h7.952l2.289 11.93 6.465-11.93h8.352l-12.167 19.4-1.527 8.717zm-25.941 0c-3.615 0-5.021-1.768-4.377-5.464l.682-3.856h7.55l-.442 2.571c-.121.563 0 .724.563.724h4.858c.563 0 .762-.161.883-.724l.4-2.45c.081-.562-.081-.684-.642-.844l-6.947-2.048c-3.735-1.085-5.341-1.808-4.66-5.665l.845-4.9c.682-3.7 2.689-5.462 6.3-5.462h10.159c3.614 0 5.061 1.766 4.377 5.462l-.6 3.576h-7.55l.4-2.29c.08-.563-.041-.723-.6-.723h-4.331c-.522 0-.724.16-.8.723l-.4 2.169c-.122.563 0 .684.642.884l6.987 2.008c3.734 1.045 5.341 1.808 4.658 5.665l-.924 5.181c-.642 3.7-2.69 5.464-6.3 5.464zm-32.744-33.345.244-1.552h181.4l-.245 1.552z" transform="translate(-7327 -7745)"/></svg>