<?xml version="1.0" encoding="UTF-8" standalone="no"?>
<svg
   xmlns:dc="http://purl.org/dc/elements/1.1/"
   xmlns:cc="http://creativecommons.org/ns#"
   xmlns:rdf="http://www.w3.org/1999/02/22-rdf-syntax-ns#"
   xmlns:svg="http://www.w3.org/2000/svg"
   xmlns="http://www.w3.org/2000/svg"
   xmlns:sodipodi="http://sodipodi.sourceforge.net/DTD/sodipodi-0.dtd"
   xmlns:inkscape="http://www.inkscape.org/namespaces/inkscape"
   viewBox="0 0 276.25 40.51"
   version="1.1"
   id="svg52"
   sodipodi:docname="only-at-walmart_1321796424_FR.gif"
   inkscape:version="0.92.4 (5da689c313, 2019-01-14)">
  <metadata
     id="metadata58">
    <rdf:RDF>
      <cc:Work
         rdf:about="">
        <dc:format>image/svg+xml</dc:format>
        <dc:type
           rdf:resource="http://purl.org/dc/dcmitype/StillImage" />
        <dc:title>Asset 3</dc:title>
      </cc:Work>
    </rdf:RDF>
  </metadata>
  <defs
     id="defs56" />
  <sodipodi:namedview
     pagecolor="#ffffff"
     bordercolor="#666666"
     borderopacity="1"
     objecttolerance="10"
     gridtolerance="10"
     guidetolerance="10"
     inkscape:pageopacity="0"
     inkscape:pageshadow="2"
     inkscape:window-width="2560"
     inkscape:window-height="1027"
     id="namedview54"
     showgrid="false"
     inkscape:zoom="3.747346"
     inkscape:cx="138.39186"
     inkscape:cy="20.254999"
     inkscape:window-x="-8"
     inkscape:window-y="-8"
     inkscape:window-maximized="1"
     inkscape:current-layer="g32" />
  <title
     id="title2">Asset 3</title>
  <g
     id="Layer_2"
     data-name="Layer 2">
    <g
       id="Layer_1-2"
       data-name="Layer 1">
      <g
         id="g48">
        <g
           id="g32">
          <path
             d="M256.37,12.51l-.93-10.6c0-1,1.22-1.91,2.76-1.91S261,.86,261,1.91L260,12.51a2.05,2.05,0,0,1-3.67,0"
             style="fill: #ffc224"
             id="path20" />
          <path
             d="M252.47,16.94a1.72,1.72,0,0,0-.06-2.15L243.7,8.68c-.91-.52-2.26.11-3,1.45s-.63,2.82.27,3.35L250.58,18a1.74,1.74,0,0,0,1.89-1"
             style="fill: #ffc224"
             id="path22" />
          <path
             d="M263.93,16.94a1.76,1.76,0,0,0,1.9,1l9.65-4.49c.91-.53,1-2,.27-3.35s-2.14-2-3-1.45L264,14.79a1.73,1.73,0,0,0-.07,2.15"
             style="fill: #ffc224"
             id="path24" />
          <path
             d="M256.37,28l-.93,10.6c0,1,1.22,1.91,2.76,1.91S261,39.65,261,38.6L260,28a2.06,2.06,0,0,0-3.67,0"
             style="fill: #ffc224"
             id="path26" />
          <path
             d="M264,25.72l8.71,6.1c.9.53,2.26-.1,3-1.44s.64-2.82-.27-3.35l-9.65-4.49a1.74,1.74,0,0,0-1.9,1,1.73,1.73,0,0,0,.07,2.15"
             style="fill: #ffc224"
             id="path28" />
          <path
             d="M250.58,22.54,240.93,27c-.9.53-1,2-.27,3.35s2.13,2,3,1.44l8.71-6.1a1.72,1.72,0,0,0,.06-2.15,1.73,1.73,0,0,0-1.89-1"
             style="fill: #ffc224"
             id="path30" />
        </g>
      </g>
    </g>
  </g>
  <path
     inkscape:connector-curvature="0"
     class="st0"
     d="m 150.89993,13.009998 c 0.3,1.7 1.3,6.7 1.3,6.7 0.4,2.1 0.8,4.2 1.1,5.9 v 0 c 0.3,-1.8 0.7,-3.5 1.2,-5.6 l 1.6,-6.9 h 3.6 l 1.5,7.1 c 0.4,2 0.7,3.5 1,5.3 v 0 c 0.3,-1.9 0.6,-3.4 1,-5.5 l 1.5,-7 h 3.4 l -4.3,16.2 c -2.7,0.6 -3.8,-0.5 -4.1,-2.2 -0.4,-1.7 -1.1,-5 -1.1,-5 -0.4,-1.6 -0.7,-3.3 -0.9,-4.9 v 0 c -0.3,1.8 -0.6,3.1 -1.1,4.9 l -1.8,7.3 c -2.7,0.5 -3.7,-0.3 -4.3,-2.5 -0.5,-1.9 -3.3,-13.7 -3.3,-13.7 h 3.7 z"
     id="path6-1"
     style="fill:#ffffff" />
  <g
     transform="translate(-8.2652273e-5,0.00999832)"
     id="g12"
     style="fill:#ffffff">
    <path
       inkscape:connector-curvature="0"
       class="st0"
       d="m 215.6,26.2 v -4.3 c 0,-2.7 -1.2,-5.2 -5.1,-5.2 -1.6,0 -3.1,0.3 -4.5,1.1 l 0.6,2.2 c 1,-0.6 2.1,-0.9 3.3,-0.9 2,0 2.3,1.1 2.3,1.9 v 0.2 c -4.4,0 -7.2,1.5 -7.2,4.6 0,2 1.6,3.7 3.6,3.7 0.1,0 0.2,0 0.2,0 1.4,0 2.7,-0.5 3.5,-1.6 h 0.1 c 0,0 0.5,2.1 3.3,1.3 0,-1 -0.1,-2 -0.1,-3 z m -3.3,-1.4 c 0,1.2 -0.9,2.2 -2.1,2.2 -0.1,0 -0.1,0 -0.2,0 -0.8,0.1 -1.6,-0.5 -1.6,-1.4 0,-0.1 0,-0.2 0,-0.2 0,-1.7 1.8,-2.1 3.9,-2.1 z"
       id="path8-2"
       style="fill:#ffffff" />
    <path
       inkscape:connector-curvature="0"
       class="st0"
       d="m 177.9,21.9 c 0,-2.7 -1.2,-5.2 -5.1,-5.2 -1.6,0 -3.1,0.3 -4.5,1.1 l 0.6,2.2 c 1,-0.6 2.1,-0.9 3.3,-0.9 2,0 2.4,1.1 2.4,1.9 v 0.2 c -4.4,0 -7.2,1.5 -7.2,4.6 0,2 1.6,3.7 3.6,3.7 0.1,0 0.2,0 0.2,0 1.4,0 2.7,-0.5 3.5,-1.6 h 0.1 c 0,0 0.5,2.1 3.3,1.3 -0.1,-1 -0.2,-1.9 -0.2,-2.9 z m -3.3,2.9 c 0,1.2 -0.9,2.2 -2.1,2.2 -0.1,0 -0.1,0 -0.2,0 -0.8,0.1 -1.6,-0.5 -1.6,-1.4 0,-0.1 0,-0.2 0,-0.2 0,-1.7 1.8,-2.1 3.9,-2.1 z"
       id="path10"
       style="fill:#ffffff" />
  </g>
  <rect
     x="180.09993"
     y="13.010003"
     class="st0"
     width="3.3"
     height="16.200001"
     id="rect14"
     style="fill:#ffffff" />
  <path
     inkscape:connector-curvature="0"
     class="st0"
     d="m 229.49993,13.009998 v 3.8 h 2.9 v 3.1 h -2.9 v 4.6 c 0,1.5 0.4,2.2 1.5,2.2 0.4,0 0.8,0 1.2,-0.1 v 2.6 c -0.8,0.2 -1.6,0.4 -2.4,0.4 -1,0 -2,-0.3 -2.7,-1 -0.7,-0.7 -1,-1.9 -1,-3.5 v -12.1 z"
     id="path16-9"
     style="fill:#ffffff" />
  <path
     inkscape:connector-curvature="0"
     class="st0"
     d="m 220.79993,17.009998 v 2.3 h 0.1 c 0.4,-1.5 1.8,-2.5 3.3,-2.6 0.3,0 0.5,0 0.7,0.1 v 3.2 c -0.3,-0.1 -0.6,-0.1 -1,-0.1 -1.3,-0.1 -2.5,0.8 -2.7,2.1 -0.1,0.3 -0.1,0.6 -0.1,0.9 v 6.2 h -3.4 v -12.1 z"
     id="path18-1"
     style="fill:#ffffff" />
  <path
     inkscape:connector-curvature="0"
     class="st0"
     d="m 188.79993,17.009998 v 1.6 0 c 0.7,-1.3 2.1,-2 3.5,-1.9 1.5,-0.1 2.8,0.8 3.3,2.2 v 0 c 0.4,-0.6 0.9,-1.1 1.5,-1.5 0.7,-0.5 1.5,-0.7 2.4,-0.7 2.2,0 4.1,1.5 4.1,5.3 v 7.2 h -3.3 v -6.6 c 0,-1.9 -0.6,-3 -2,-3 -0.9,0 -1.7,0.6 -2,1.5 -0.1,0.3 -0.1,0.7 -0.1,1 v 7.2 h -3.3 v -6.9 c 0,-1.6 -0.6,-2.7 -2,-2.7 -0.9,0.1 -1.7,0.7 -2,1.6 -0.1,0.3 -0.2,0.7 -0.2,1 v 7.1 h -3.3 v -12.4 z"
     id="path20-0"
     style="fill:#ffffff" />
  <g
     transform="translate(-8.2652273e-5,0.00999832)"
     id="g60"
     style="fill:#ffffff">
    <path
       inkscape:connector-curvature="0"
       d="m 1.4,26.4 c 0.1,-0.1 0.2,-0.3 0.4,-0.5 0.2,-0.3 0.5,-0.5 0.9,-0.2 0.2,0.1 2,1.9 4.2,1.9 2,0 3.3,-1.3 3.3,-2.7 0,-1.7 -1.5,-2.7 -4.3,-3.9 -2.7,-1.2 -4.4,-2.3 -4.4,-5.1 0,-1.7 1.3,-4.4 5.3,-4.4 2.4,0 4.2,1.3 4.2,1.3 0.1,0.1 0.4,0.4 0.1,0.8 -0.1,0.1 -0.2,0.3 -0.3,0.5 -0.2,0.3 -0.5,0.4 -0.9,0.2 -0.2,-0.1 -1.7,-1.1 -3.2,-1.1 -2.6,0 -3.4,1.7 -3.4,2.7 0,1.7 1.3,2.6 3.3,3.5 3.3,1.4 5.5,2.6 5.5,5.5 0,2.6 -2.4,4.5 -5.3,4.5 -2.9,0 -4.9,-1.7 -5.2,-2 C 1.4,27 1.1,26.8 1.4,26.4 Z"
       id="path34-1"
       style="fill:#ffffff" />
    <path
       inkscape:connector-curvature="0"
       d="m 18.2,18.8 c 2.6,0 4.5,1.9 4.5,4.5 0,0.2 0,0.5 0,0.7 0,0.2 -0.2,0.4 -0.4,0.4 h -7.1 c 0.1,1.7 1.6,3.2 3.3,3.2 1,0 1.9,-0.4 2.4,-0.7 0.3,-0.2 0.5,-0.3 0.7,0 0.1,0.2 0.3,0.4 0.4,0.6 0.2,0.2 0.3,0.4 -0.1,0.6 -0.6,0.5 -1.9,1.1 -3.6,1.1 -3,0 -4.8,-2.3 -4.8,-5.2 -0.1,-2.8 1.7,-5.2 4.7,-5.2 z M 21,23 c -0.1,-1.4 -1.3,-2.7 -2.8,-2.7 -1.7,0 -2.9,1.2 -3.1,2.7 z"
       id="path36-7"
       style="fill:#ffffff" />
    <path
       inkscape:connector-curvature="0"
       d="m 24.4,19.5 c 0,-0.2 0.2,-0.5 0.5,-0.5 h 0.8 c 0.2,0 0.5,0.2 0.5,0.5 v 5.2 c 0,1.9 0.8,2.8 2.2,2.8 1.9,0 2.9,-1.4 2.9,-1.4 0,-0.5 0,-1.1 0,-6.6 0,-0.2 0.2,-0.5 0.5,-0.5 h 0.8 c 0.2,0 0.5,0.2 0.5,0.5 v 9 c 0,0.2 -0.2,0.5 -0.5,0.5 h -0.5 c -0.3,0 -0.4,-0.2 -0.4,-0.4 L 31.5,28 c 0,0 -1.2,1.3 -3.2,1.3 -2.9,0 -3.8,-1.9 -3.8,-4.5 v -5.3 z"
       id="path38-8"
       style="fill:#ffffff" />
    <path
       inkscape:connector-curvature="0"
       d="m 35.7,12.1 c 0,-0.2 0.2,-0.5 0.5,-0.5 H 37 c 0.2,0 0.5,0.2 0.5,0.5 V 28.5 C 37.5,28.7 37.3,29 37,29 H 36.2 C 36,29 35.7,28.8 35.7,28.5 Z"
       id="path40-0"
       style="fill:#ffffff" />
    <path
       inkscape:connector-curvature="0"
       d="m 44.2,18.8 c 2.6,0 4.5,1.9 4.5,4.5 0,0.2 0,0.5 0,0.7 0,0.2 -0.2,0.4 -0.4,0.4 H 41 c 0.1,1.7 1.6,3.2 3.3,3.2 1,0 1.9,-0.4 2.4,-0.7 0.3,-0.2 0.5,-0.3 0.7,0 0.1,0.2 0.3,0.4 0.4,0.6 0.2,0.2 0.3,0.4 -0.1,0.6 -0.6,0.5 -1.9,1.1 -3.6,1.1 -3,0 -4.8,-2.3 -4.8,-5.2 0,-2.8 1.9,-5.2 4.9,-5.2 z M 47,23 c -0.1,-1.4 -1.3,-2.7 -2.8,-2.7 -1.7,0 -2.9,1.2 -3.1,2.7 z"
       id="path42-9"
       style="fill:#ffffff" />
    <path
       inkscape:connector-curvature="0"
       d="M 50.5,19.5 C 50.5,19.3 50.7,19 51,19 h 0.5 c 0.2,0 0.3,0.1 0.4,0.3 l 0.2,0.8 c 0,0 1.2,-1.3 3.2,-1.3 1.5,0 2.5,0.6 3.2,1.6 0.1,-0.1 1.7,-1.6 3.7,-1.6 2.9,0 3.8,1.9 3.8,4.5 v 5.2 c 0,0.2 -0.2,0.5 -0.5,0.5 h -0.8 c -0.2,0 -0.5,-0.2 -0.5,-0.5 v -5.2 c 0,-1.9 -0.8,-2.8 -2.2,-2.8 -1.6,0 -2.7,1.1 -3,1.4 0.1,0.4 0.1,0.9 0.1,1.4 v 5.2 c 0,0.2 -0.2,0.5 -0.5,0.5 h -0.8 c -0.2,0 -0.5,-0.2 -0.5,-0.5 v -5.2 c 0,-1.9 -0.8,-2.8 -2.3,-2.8 -1.8,0 -2.8,1.4 -2.8,1.4 v 6.6 C 52.2,28.7 52,29 51.7,29 H 51 c -0.2,0 -0.5,-0.2 -0.5,-0.5 z"
       id="path44-8"
       style="fill:#ffffff" />
    <path
       inkscape:connector-curvature="0"
       d="m 72.6,18.8 c 2.6,0 4.5,1.9 4.5,4.5 0,0.2 0,0.5 0,0.7 0,0.2 -0.2,0.4 -0.4,0.4 h -7.1 c 0.1,1.7 1.6,3.2 3.3,3.2 1,0 1.9,-0.4 2.4,-0.7 0.3,-0.2 0.5,-0.3 0.7,0 0.1,0.2 0.3,0.4 0.4,0.6 0.2,0.2 0.3,0.4 -0.1,0.6 -0.6,0.5 -1.9,1.1 -3.6,1.1 -3,0 -4.8,-2.3 -4.8,-5.2 -0.1,-2.8 1.7,-5.2 4.7,-5.2 z m 2.8,4.2 c -0.1,-1.4 -1.3,-2.7 -2.8,-2.7 -1.7,0 -2.9,1.2 -3.1,2.7 z"
       id="path46"
       style="fill:#ffffff" />
    <path
       inkscape:connector-curvature="0"
       d="m 78.9,19.5 c 0,-0.2 0.2,-0.5 0.5,-0.5 h 0.5 c 0.2,0 0.3,0.1 0.4,0.3 l 0.2,0.8 c 0,0 1.4,-1.3 3.5,-1.3 2.9,0 3.8,1.9 3.8,4.5 v 5.2 c 0,0.2 -0.2,0.5 -0.5,0.5 H 86.5 C 86.3,29 86,28.8 86,28.5 v -5.2 c 0,-1.9 -0.8,-2.8 -2.2,-2.8 -1.9,0 -3.2,1.4 -3.2,1.4 v 6.6 c 0,0.2 -0.2,0.5 -0.5,0.5 h -0.8 c -0.2,0 -0.5,-0.2 -0.5,-0.5 v -9 z"
       id="path48"
       style="fill:#ffffff" />
    <path
       inkscape:connector-curvature="0"
       d="m 90.9,20.5 h -1.3 c -0.3,0 -0.5,-0.2 -0.5,-0.5 v -0.5 c 0,-0.3 0.2,-0.5 0.5,-0.5 h 1.3 v -2.7 c 0,-0.2 0.2,-0.5 0.5,-0.5 h 0.8 c 0.2,0 0.4,0.2 0.4,0.5 v 2.8 h 2.9 c 0.3,0 0.5,0.2 0.5,0.5 v 0.5 c 0,0.2 -0.2,0.5 -0.5,0.5 h -2.9 v 5.8 c 0,1 0.2,1.2 0.8,1.2 0.6,0 1.5,-0.4 1.8,-0.5 0.4,-0.2 0.5,0 0.6,0.1 l 0.4,0.6 c 0.2,0.3 0.1,0.4 -0.2,0.6 -0.3,0.2 -1.7,0.8 -2.8,0.8 -2,0 -2.3,-1.2 -2.3,-2.7 z"
       id="path50"
       style="fill:#ffffff" />
    <path
       inkscape:connector-curvature="0"
       d="m 106.9,18.8 c 1.5,0 2.6,0.6 3.5,1.7 0.2,0.2 0.1,0.5 -0.1,0.7 l -0.5,0.4 c -0.4,0.3 -0.5,0.1 -0.7,-0.1 -0.5,-0.6 -1.3,-1 -2.3,-1 -1.9,0 -3.3,1.5 -3.3,3.5 0,2 1.4,3.6 3.3,3.6 1.5,0 2.1,-0.7 2.6,-1.3 0.3,-0.3 0.5,-0.2 0.7,0 l 0.3,0.2 c 0.2,0.2 0.3,0.4 0.2,0.7 -0.7,1.2 -2.1,2.1 -3.8,2.1 -2.7,0 -5.1,-2.2 -5.1,-5.2 0.1,-3 2.5,-5.3 5.2,-5.3 z"
       id="path52"
       style="fill:#ffffff" />
    <path
       inkscape:connector-curvature="0"
       d="m 112.6,12.1 c 0,-0.2 0.2,-0.5 0.5,-0.5 h 0.8 c 0.2,0 0.5,0.2 0.5,0.5 v 8 c 0,0 1.3,-1.3 3.3,-1.3 2.4,0 3.8,1.6 3.8,4.5 v 5.2 c 0,0.2 -0.2,0.5 -0.5,0.5 h -0.8 c -0.2,0 -0.5,-0.2 -0.5,-0.5 v -5.2 c 0,-1.9 -0.8,-2.8 -2.2,-2.8 -1.9,0 -3.2,1.4 -3.2,1.4 v 6.6 c 0,0.2 -0.2,0.5 -0.5,0.5 H 113 c -0.2,0 -0.5,-0.2 -0.5,-0.5 V 12.1 Z"
       id="path54"
       style="fill:#ffffff" />
    <path
       inkscape:connector-curvature="0"
       d="m 128.1,18.8 c 2.6,0 4.5,1.9 4.5,4.5 0,0.2 0,0.5 0,0.7 0,0.2 -0.2,0.4 -0.4,0.4 H 125 c 0.1,1.7 1.6,3.2 3.3,3.2 1,0 1.9,-0.4 2.4,-0.7 0.3,-0.2 0.5,-0.3 0.7,0 0.1,0.2 0.3,0.4 0.4,0.6 0.2,0.2 0.3,0.4 -0.1,0.6 -0.6,0.5 -1.9,1.1 -3.6,1.1 -3,0 -4.8,-2.3 -4.8,-5.2 0,-2.8 1.8,-5.2 4.8,-5.2 z m 2.8,4.2 c -0.1,-1.4 -1.3,-2.7 -2.8,-2.7 -1.7,0 -2.9,1.2 -3.1,2.7 z"
       id="path56"
       style="fill:#ffffff" />
    <path
       inkscape:connector-curvature="0"
       d="m 133.6,28.2 4.8,-7.5 v -0.1 h -4.2 c -0.2,0 -0.4,-0.2 -0.4,-0.5 v -0.6 c 0,-0.3 0.2,-0.5 0.4,-0.5 h 6.2 c 0.4,0 0.6,0.3 0.4,0.7 l -4.7,7.6 v 0.1 h 3.8 c 0.3,0 0.5,0.2 0.5,0.5 v 0.6 c 0,0.2 -0.2,0.5 -0.5,0.5 H 134 c -0.2,0 -0.5,-0.2 -0.5,-0.5 v -0.3 z"
       id="path58"
       style="fill:#ffffff" />
  </g>
</svg>
