<svg id="e2e81dd1-cd4a-4637-9a76-175b406a246f" data-name="artwork" xmlns="http://www.w3.org/2000/svg" viewBox="0 0 138.61 151.6"><defs><style>.f6ab555c-ef66-4152-a8a2-9949ec0033c9{fill:none;}.e9b0db5d-6dc5-42c0-b421-8ab6f8cf85ff{fill:#ffc220;}</style></defs><title>Walmart_Logos_TradeSpark_ylw_RGB</title><rect class="f6ab555c-ef66-4152-a8a2-9949ec0033c9" width="138.61" height="151.6"/><path class="e9b0db5d-6dc5-42c0-b421-8ab6f8cf85ff" d="M125.4,109.83a2.84,2.84,0,1,0,2.83-2.84A2.83,2.83,0,0,0,125.4,109.83Zm.54,0a2.29,2.29,0,1,1,2.29,2.28A2.29,2.29,0,0,1,125.94,109.83Zm1.27,1.28a.15.15,0,0,0,.15.15h.29a.15.15,0,0,0,.15-.15v-.89h.49l.4.93a.16.16,0,0,0,.14.11h.35a.15.15,0,0,0,.14-.21l-.42-.88a.85.85,0,0,0,.6-.86.93.93,0,0,0-1-.94h-1.17a.15.15,0,0,0-.15.15Zm.58-1.41v-.77h.7a.36.36,0,0,1,.39.38.37.37,0,0,1-.39.39ZM63.92,53,61.17,21.88c0-3.08,3.6-5.61,8.13-5.61s8.15,2.53,8.15,5.61L74.69,53c-.31,1.88-2.6,3.32-5.39,3.32S64.23,54.91,63.92,53Zm-17,16L18.55,55.89C15.89,54.35,15.48,50,17.76,46S24,40.26,26.67,41.8l25.61,18c1.47,1.21,1.58,3.91.18,6.33S48.67,69.74,46.89,69.08Zm39.44-9.33,25.61-18c2.65-1.54,6.65.31,8.92,4.24s1.88,8.31-.79,9.85L91.72,69.08c-1.78.66-4.18-.59-5.57-3S84.87,61,86.33,59.75Zm-17,35.51c2.79,0,5.08,1.44,5.39,3.32l2.76,31.14c0,3.09-3.61,5.61-8.15,5.61s-8.13-2.52-8.13-5.61l2.75-31.14C64.23,96.7,66.52,95.26,69.3,95.26Zm16.85-9.73c1.39-2.42,3.79-3.67,5.57-3l28.35,13.18c2.67,1.55,3.05,5.93.79,9.86s-6.27,5.78-8.92,4.24L86.33,91.87C84.87,90.65,84.76,87.94,86.15,85.53Zm-33.69,0c1.4,2.42,1.29,5.12-.18,6.34L26.67,109.81c-2.65,1.54-6.65-.32-8.91-4.24s-1.87-8.31.79-9.86L46.89,82.53C48.67,81.86,51.07,83.11,52.46,85.53Z"/></svg>