<?xml version="1.0" encoding="UTF-8" standalone="no"?>
<svg
   xmlns:dc="http://purl.org/dc/elements/1.1/"
   xmlns:cc="http://creativecommons.org/ns#"
   xmlns:rdf="http://www.w3.org/1999/02/22-rdf-syntax-ns#"
   xmlns:svg="http://www.w3.org/2000/svg"
   xmlns="http://www.w3.org/2000/svg"
   xmlns:sodipodi="http://sodipodi.sourceforge.net/DTD/sodipodi-0.dtd"
   xmlns:inkscape="http://www.inkscape.org/namespaces/inkscape"
   height="45.506"
   viewBox="0 0 267.933 45.506"
   width="267.933"
   version="1.1"
   id="svg4"
   sodipodi:docname="20v_homepromo_logo-tag-02_1732585802_FR.gif"
   inkscape:version="0.92.4 (5da689c313, 2019-01-14)">
  <metadata
     id="metadata10">
    <rdf:RDF>
      <cc:Work
         rdf:about="">
        <dc:format>image/svg+xml</dc:format>
        <dc:type
           rdf:resource="http://purl.org/dc/dcmitype/StillImage" />
        <dc:title></dc:title>
      </cc:Work>
    </rdf:RDF>
  </metadata>
  <defs
     id="defs8" />
  <sodipodi:namedview
     pagecolor="#ffffff"
     bordercolor="#666666"
     borderopacity="1"
     objecttolerance="10"
     gridtolerance="10"
     guidetolerance="10"
     inkscape:pageopacity="0"
     inkscape:pageshadow="2"
     inkscape:window-width="2560"
     inkscape:window-height="1027"
     id="namedview6"
     showgrid="false"
     inkscape:zoom="1.3660131"
     inkscape:cx="134.69856"
     inkscape:cy="22.753"
     inkscape:window-x="-8"
     inkscape:window-y="-8"
     inkscape:window-maximized="1"
     inkscape:current-layer="svg4" />
  <path
     inkscape:connector-curvature="0"
     d="m 243.7,45.506001 -3.8,-31.4 h 8.8 l 1,21.8 h 0.6 l 8.7,-21.8 h 8.9 l -14.8,31.4 z m -34.7,-0.1 v 0 c -3.1,0 -6.1,0.1 -9.2,0 -5.4,-0.1 -7.7,-3.1 -6.7,-8.4 1.7,-9.4 3.4,-18.8 5,-28.1000005 1,-5.9 4.1,-8.59999998 10.1,-8.79999998 4.8,-0.1 9.5,-0.1 14.2,-0.1 1.8,0 3.6,0.1 5.3,0.3 3.9,0.6 5.6,2.79999998 5.1,6.59999998 -0.6,4.5000005 -1.4,8.9000005 -2.2,13.4000005 -0.9,5.2 -1.8,10.4 -2.8,15.6 -0.2,1.4 -0.6,2.7 -1.1,4 -1.5,3.8 -4.6,5.3 -8.4,5.5 -1.2,0.1 -2.4,0.1 -3.6,0.1 -1.8,0 -3.7,-0.1 -5.7,-0.1 z m 0.5,-33.1 c -0.5,3.6 -1.3,7.2 -2,10.9 -0.6,3.4 -1.2,6.9 -1.8,10.3 -0.2,1.4 0.3,2.2 1.8,2.1 1,-0.1 2,0 3,0 1.1,0 2.2,0 3.2,0 1.3,0.2 2.4,-0.7 2.6,-2 0,-0.1 0,-0.1 0,-0.2 1.3,-7.1 2.5,-14.1 3.8,-21.2 0.3,-1.6 -0.3,-2.3000005 -1.9,-2.3000005 -2,0 -4.1,0 -6.1,0 H 212 c -1.4,0 -2.2,0.7000005 -2.5,2.4000005 z m -53.5,33.1 c 0,0 2.3,-12.4 3,-16.2 0.6,-3.4 3.1,-6.2 6.3,-7.3 4.9,-1.9 11.2,-4 16.1,-5.8 1.7,-0.6 1.9,-3.5 1.9,-5.6 0,-0.5 -0.9,-0.9000005 -1.5,-0.9000005 -1.9,-0.1 -4.1,-0.1 -6,-0.1 -1,-0.1 -1.9,0.7000005 -2,1.7000005 0,0 0,0.1 0,0.1 -0.1,0.9 -0.2,1.9 -0.4,2.8 h -11.5 c 0.7,-6.1000005 2.1,-11.6000005 6.4,-13.20000048 1.5,-0.6 3,-0.9 4.6,-1 5.2,-0.1 10.4,-0.1 15.7,0 2.6,0.1 5.3,0.5 6.5,3.29999998 0.4,0.9 0.6,1.8 0.5,2.8 -0.5,4.0000005 -1,8.0000005 -1.9,11.8000005 -0.8,3.5 -3.4,5.6 -6.7,6.8 -5,1.9 -9.6,3.4 -14.6,5.2 -2.5,0.8 -2.8,5.4 -2.8,5.4 h 21.3 l -1.7,10 z m -155.8,-0.1 0.6,-1.6 h 148.3 l -0.2,1.6 z m 0.1,-40.1000005 0.2,-1.6 H 157 l -0.2,1.6 z"
     id="path2-9" />
  <g
     transform="translate(0,0.00600052)"
     id="g18">
    <path
       inkscape:connector-curvature="0"
       d="m 15.1,22.1 0.3,-2 c 0,-0.3 0,-0.4 -0.1,-0.5 -0.1,-0.1 -0.2,-0.1 -0.5,-0.1 h -3.7 c -0.2,0 -0.4,0 -0.5,0.1 -0.1,0.1 -0.2,0.3 -0.2,0.5 L 10.2,22 c 0,0.2 0,0.4 0,0.5 0.1,0.1 0.2,0.2 0.5,0.3 l 6,1.7 c 0.5,0.1 0.9,0.3 1.3,0.4 0.3,0.1 0.7,0.2 1,0.4 0.4,0.2 0.6,0.3 0.8,0.5 0.2,0.2 0.4,0.4 0.6,0.6 0.2,0.2 0.3,0.5 0.4,0.8 0.1,0.3 0.1,0.6 0.1,1 0,0.4 0,0.8 -0.1,1.3 L 20,33.8 c -0.6,3.1 -2.4,4.7 -5.4,4.7 H 5.3 C 2.2,38.5 1,36.9 1.5,33.8 l 0.6,-3.3 h 6.5 l -0.4,2.2 c 0,0.3 0,0.4 0,0.5 0.1,0.1 0.2,0.1 0.4,0.1 h 4.2 c 0.4,0 0.7,-0.2 0.8,-0.6 l 0.3,-2.1 c 0,-0.2 0,-0.4 -0.1,-0.5 -0.1,-0.1 -0.2,-0.2 -0.5,-0.2 l -6,-1.8 C 6.1,27.8 5.2,27.4 4.6,27.2 4,27 3.6,26.5 3.4,25.8 3.1,25.2 3.1,24.3 3.3,23.2 L 4.2,19 c 0.6,-3.1 2.4,-4.7 5.4,-4.7 h 8.7 c 3.1,0 4.3,1.6 3.8,4.7 l -0.5,3.1 z"
       id="path4" />
    <path
       inkscape:connector-curvature="0"
       d="M 33.3,38.5 H 26.8 L 28.1,31 23.5,14.3 h 6.8 l 2,10.3 5.6,-10.3 h 7.2 L 34.6,31 Z"
       id="path6" />
    <path
       inkscape:connector-curvature="0"
       d="m 57,22.1 0.3,-2 c 0,-0.3 0,-0.4 -0.1,-0.5 C 57.1,19.5 57,19.5 56.7,19.5 H 53 c -0.2,0 -0.4,0 -0.5,0.1 -0.1,0.1 -0.2,0.3 -0.2,0.5 L 52,22 c 0,0.2 0,0.4 0,0.5 0.1,0.1 0.2,0.2 0.5,0.3 l 6,1.7 c 0.5,0.1 0.9,0.3 1.3,0.4 0.3,0.1 0.7,0.2 1,0.4 0.4,0.2 0.6,0.3 0.8,0.5 0.2,0.2 0.4,0.4 0.6,0.6 0.2,0.2 0.3,0.5 0.4,0.8 0.1,0.3 0.1,0.6 0.1,1 0,0.4 0,0.8 -0.1,1.3 L 61.8,34 c -0.6,3.1 -2.4,4.7 -5.4,4.7 h -9.2 c -3.1,0 -4.3,-1.6 -3.8,-4.7 L 44,30.7 h 6.5 l -0.4,2.2 c 0,0.3 0,0.4 0,0.5 0.1,0.1 0.2,0.1 0.4,0.1 h 4.2 c 0.4,0 0.7,-0.2 0.8,-0.6 l 0.3,-2.1 c 0,-0.2 0,-0.4 -0.1,-0.5 -0.1,-0.1 -0.2,-0.2 -0.5,-0.2 l -6,-1.8 C 48,28 47.1,27.6 46.5,27.4 45.9,27.1 45.5,26.7 45.3,26 45,25.4 45,24.5 45.2,23.4 l 0.7,-4.2 c 0.6,-3.1 2.4,-4.7 5.4,-4.7 H 60 c 3.1,0 4.3,1.6 3.8,4.7 l -0.5,3.1 H 57 Z"
       id="path8" />
    <path
       inkscape:connector-curvature="0"
       d="M 83.3,19.8 H 77.4 L 74.1,38.4 H 67.6 L 70.9,19.8 H 65 l 1,-5.5 h 18.2 z"
       id="path10" />
    <path
       inkscape:connector-curvature="0"
       d="m 86.9,14.3 h 16.7 l -0.9,5.4 H 92.4 l -0.7,3.8 h 8.1 l -0.9,5.3 H 90.8 L 90,33.1 h 10.2 l -1,5.4 H 82.6 Z M 94,12 h 4.8 L 96.6,7 h -7.4 z"
       id="path12" />
    <path
       inkscape:connector-curvature="0"
       d="m 131.9,14.3 -4.3,24.2 h -6.2 l 2.4,-13.9 -6.1,11 h -3.9 l -2.7,-11 -2.5,13.9 h -6.1 l 4.3,-24.2 h 7.3 l 3,12.7 7.1,-12.7 z"
       id="path14" />
    <path
       inkscape:connector-curvature="0"
       d="m 136,14.3 h 16.7 l -0.9,5.4 h -10.2 l -0.7,3.8 h 8.1 l -0.9,5.3 H 140 l -0.8,4.3 h 10.2 l -1,5.4 h -16.7 z"
       id="path16" />
  </g>
</svg>
