<?xml version="1.0" standalone="no"?>
<!DOCTYPE svg PUBLIC "-//W3C//DTD SVG 20010904//EN"
 "http://www.w3.org/TR/2001/REC-SVG-20010904/DTD/svg10.dtd">
<svg version="1.0" xmlns="http://www.w3.org/2000/svg"
 width="1024.000000pt" height="1024.000000pt" viewBox="0 0 1024.000000 1024.000000"
 preserveAspectRatio="xMidYMid meet">
<metadata>
Created by potrace 1.11, written by Peter Selinger 2001-2013
</metadata>
<g transform="translate(0.000000,1024.000000) scale(0.100000,-0.100000)"
fill="#000000" stroke="none">
<path d="M0 5626 l0 -3784 75 -17 c41 -9 76 -15 77 -14 2 1 12 -2 23 -8 11 -6
36 -14 55 -17 31 -5 59 -12 135 -32 11 -3 31 -7 45 -10 14 -3 32 -7 40 -9 8
-2 16 -4 18 -5 3 -3 3 -3 77 -20 33 -7 65 -15 70 -16 40 -11 58 -15 120 -29
39 -9 80 -21 92 -27 13 -6 26 -9 29 -5 3 3 18 1 33 -5 14 -5 35 -11 46 -14 32
-6 109 -25 125 -32 8 -3 22 -6 30 -7 17 0 197 -44 220 -52 8 -4 26 -8 40 -10
14 -2 59 -13 100 -25 41 -11 86 -22 99 -24 13 -3 67 -16 120 -29 53 -14 105
-26 116 -28 11 -1 26 -6 33 -11 7 -4 16 -5 19 -2 3 3 18 -1 34 -10 16 -8 31
-14 34 -13 10 2 72 -11 155 -32 25 -6 52 -13 60 -14 8 -1 22 -5 30 -8 8 -3 38
-11 65 -17 28 -7 59 -14 70 -17 11 -2 36 -9 55 -13 19 -5 64 -16 100 -25 36
-9 72 -17 80 -19 8 -2 26 -6 40 -9 100 -26 440 -109 460 -113 14 -3 61 -15
105 -26 44 -12 89 -22 100 -24 11 -1 20 -3 20 -4 0 -1 8 -4 50 -14 11 -2 187
-45 390 -96 204 -50 380 -92 392 -93 13 -1 23 -5 23 -8 0 -3 6 -6 13 -7 6 0
22 -3 35 -6 12 -2 22 -2 23 2 3 19 4 2958 2 2967 -2 7 -158 10 -464 10 -254 0
-463 3 -465 6 -2 4 -4 33 -4 65 0 33 0 67 0 77 0 31 0 64 1 112 0 17 0 37 0
45 0 8 -1 47 0 85 0 39 0 76 -1 83 0 17 0 51 1 107 0 17 0 36 0 43 -1 6 -1 18
-2 25 0 6 0 26 0 42 1 17 0 44 -2 60 -1 17 1 42 5 57 3 15 3 30 -2 33 -6 3 -5
16 0 29 5 13 6 27 3 30 -8 8 -181 7 1891 8 1824 1 1859 1 1863 -18 7 -41 9
-84 4 -84 -7 0 -4 -127 3 -146 3 -8 2 -14 -3 -14 -5 0 -5 -18 -1 -39 4 -21 3
-46 -2 -55 -6 -10 -5 -16 1 -16 7 0 7 -8 1 -24 -5 -13 -6 -26 -4 -29 9 -8 10
-70 3 -98 -4 -15 -3 -32 1 -40 5 -7 4 -21 -1 -31 -6 -12 -6 -18 0 -18 7 0 7
-8 1 -24 -5 -13 -7 -26 -4 -29 8 -8 11 -77 3 -77 -4 0 -4 -12 0 -27 4 -16 5
-39 1 -53 -3 -14 -5 -38 -3 -55 l3 -30 -465 1 c-256 0 -465 -2 -466 -5 -3 -19
-4 -2949 0 -2964 2 -13 9 -16 25 -11 11 4 30 8 41 10 11 1 21 3 23 4 1 2 7 4
12 5 6 1 11 3 13 5 2 2 6 2 62 15 17 3 35 7 40 9 6 1 28 6 50 11 22 4 46 12
53 18 6 5 12 7 12 4 0 -3 17 -1 38 4 20 5 46 12 57 14 11 3 76 19 145 36 142
36 132 33 185 44 22 4 45 10 50 14 6 3 18 7 27 8 10 2 82 19 160 38 79 20 154
38 168 41 14 3 61 14 105 25 76 20 92 24 133 33 9 2 35 9 57 15 22 5 55 13 74
16 19 3 37 8 41 10 3 2 17 6 31 9 13 3 33 7 44 10 11 3 58 14 105 26 47 11 99
24 115 29 17 5 57 15 90 21 33 7 64 15 70 18 5 3 19 7 30 8 12 1 41 8 66 14
24 7 51 14 59 15 8 2 107 27 220 55 113 28 216 53 230 56 14 3 43 10 65 16 22
6 47 12 55 13 8 2 17 4 20 5 3 1 10 3 15 5 6 1 12 3 15 4 3 2 16 5 30 7 42 7
65 12 65 14 0 1 7 3 15 5 8 1 42 10 75 18 33 9 71 18 85 21 14 3 54 12 90 21
36 9 72 18 80 20 8 2 71 18 140 35 69 17 136 33 150 36 14 3 33 7 42 10 9 3
25 7 35 9 10 3 45 11 78 20 33 8 69 17 80 19 11 2 93 23 182 45 147 37 194 48
216 50 4 1 7 1704 7 3786 l0 3785 -1875 0 -1874 0 1 -179 c1 -167 3 -182 22
-205 12 -14 32 -39 46 -57 14 -18 31 -38 38 -45 6 -7 12 -15 12 -19 0 -3 10
-17 23 -30 12 -13 27 -30 32 -37 55 -71 163 -207 177 -223 126 -145 161 -203
159 -270 0 -5 0 -23 0 -40 -1 -16 0 -43 2 -60 1 -16 -1 -42 -4 -56 -4 -15 -3
-32 1 -40 5 -7 4 -21 -1 -31 -6 -12 -6 -18 0 -18 7 0 7 -8 1 -24 -5 -13 -7
-26 -4 -29 8 -7 11 -77 4 -77 -4 0 -4 -18 0 -39 4 -21 3 -46 -2 -55 -6 -10 -5
-16 1 -16 7 0 7 -8 1 -24 -5 -13 -6 -26 -4 -29 9 -8 10 -70 3 -98 -4 -15 -3
-32 1 -40 5 -7 4 -21 -1 -31 -6 -12 -6 -18 0 -18 7 0 7 -8 1 -24 -5 -13 -7
-26 -4 -29 8 -7 11 -77 4 -77 -4 0 -4 -18 0 -39 4 -21 3 -46 -2 -55 -6 -10 -5
-16 1 -16 7 0 7 -8 1 -24 -5 -13 -6 -26 -4 -29 9 -8 10 -70 3 -98 -4 -15 -3
-32 1 -40 5 -7 5 -20 0 -29 -6 -11 -5 -21 1 -27 6 -6 7 -13 2 -16 -4 -3 -6
-37 -3 -76 3 -39 2 -81 -1 -95 -4 -13 -3 -30 1 -37 5 -7 5 -20 1 -28 -5 -9 -5
-25 -1 -36 4 -11 4 -32 0 -46 -4 -15 -4 -32 0 -38 4 -7 4 -30 0 -52 -4 -22 -3
-42 1 -45 5 -3 6 -10 3 -16 -4 -6 -8 -22 -9 -37 -10 -98 -128 -212 -213 -206
-12 1 -22 -1 -22 -4 0 -5 -70 -6 -95 -1 -6 2 -12 2 -15 0 -15 -5 -80 -4 -80 2
0 4 -12 3 -27 -1 -16 -5 -37 -5 -48 -1 -11 4 -24 5 -29 2 -5 -3 -24 -5 -41 -5
-17 0 -36 2 -41 5 -5 3 -18 2 -29 -2 -11 -4 -33 -4 -50 0 -16 3 -43 3 -60 0
-16 -3 -43 -3 -60 0 -16 3 -43 3 -60 0 -16 -4 -40 -3 -51 1 -12 4 -25 5 -28 1
-8 -8 -103 -5 -116 3 -6 3 -10 3 -10 -2 0 -4 -19 -7 -42 -5 -24 1 -49 3 -55 2
-48 0 -110 0 -149 1 -25 0 -48 -2 -51 -5 -3 -2 -15 -1 -28 4 -13 5 -26 6 -29
2 -8 -8 -103 -5 -116 3 -6 3 -10 3 -10 -2 0 -4 -19 -7 -42 -5 -24 1 -49 3 -55
2 -7 0 -34 0 -60 0 -27 0 -82 -1 -123 -1 -41 0 -94 0 -117 0 -44 1 -62 1 -88
1 -8 -1 -36 0 -61 0 -25 1 -48 -1 -51 -4 -3 -3 -13 -1 -22 4 -10 5 -23 5 -30
1 -7 -5 -27 -5 -45 -2 -17 4 -44 4 -61 1 -16 -4 -40 -3 -51 1 -12 4 -25 5 -28
1 -8 -8 -103 -5 -116 3 -6 3 -10 3 -10 -2 0 -4 -19 -7 -42 -5 -24 1 -49 3 -55
2 -48 0 -110 0 -149 1 -25 0 -48 -2 -51 -5 -3 -2 -15 -1 -28 4 -13 5 -26 6
-29 2 -6 -5 -86 -6 -112 -1 -5 1 -12 0 -16 -1 -5 -1 -24 -2 -43 -2 -19 0 -38
1 -42 2 -5 1 -12 1 -18 0 -24 -5 -123 -2 -133 4 -6 3 -13 2 -16 -2 -3 -5 -26
-6 -51 -2 -25 4 -45 4 -45 1 0 -3 -30 -5 -67 -4 -38 1 -68 2 -68 3 0 1 -21 3
-47 5 -26 2 -56 9 -67 15 -12 6 -21 8 -21 5 0 -4 -20 10 -45 31 -25 20 -45 43
-45 50 0 8 -4 14 -9 14 -10 0 -29 50 -37 97 -2 15 -7 34 -9 41 -2 6 -1 12 4
12 5 0 5 18 1 39 -4 21 -3 46 2 55 6 10 5 16 -1 16 -7 0 -7 8 -1 24 5 13 7 26
4 29 -7 7 -11 77 -5 77 7 0 4 127 -3 146 -3 8 -2 14 3 14 5 0 5 18 1 39 -4 21
-3 46 2 55 6 10 5 16 -1 16 -7 0 -7 8 -1 24 5 13 6 26 4 29 -9 8 -10 70 -3 98
4 15 3 32 -1 40 -5 7 -4 21 1 31 6 12 6 18 0 18 -7 0 -7 8 -1 24 5 13 7 26 4
29 -8 8 -11 77 -3 77 4 0 4 13 -1 29 -4 16 -6 32 -3 35 5 5 5 86 0 141 -1 17
1 42 4 56 4 15 3 32 -1 40 -5 7 -4 21 1 31 6 12 6 18 0 18 -7 0 -7 8 -1 24 5
13 7 26 4 29 -8 7 -11 77 -4 77 4 0 4 18 0 39 -4 21 -3 46 2 55 6 10 5 16 -1
16 -7 0 -7 8 -1 24 5 13 6 26 4 29 -9 9 -10 70 -3 100 5 16 4 27 -2 27 -6 0
-7 5 -3 11 3 6 6 28 6 50 -1 28 7 48 26 71 15 18 31 39 37 46 5 7 16 19 23 27
6 7 12 18 12 24 0 6 3 11 8 11 4 0 36 38 72 85 36 47 68 85 72 85 5 0 8 6 8
13 0 6 12 26 28 42 15 17 40 48 57 70 31 42 61 79 82 101 7 7 13 15 13 18 0 4
12 20 28 37 27 31 27 32 32 211 3 99 3 182 1 184 -2 2 -845 4 -1873 4 l-1868
0 0 -3784z"/>
</g>
</svg>
