<svg xmlns="http://www.w3.org/2000/svg" viewBox="0 0 276.25 40.51">
  <title>Asset 3</title>
  <g id="Layer_2" data-name="Layer 2">
    <g id="Layer_1-2" data-name="Layer 1">
      <g>
        <g>
          <path d="M113.78,8.5c.48,2.49,1.89,9.71,1.89,9.71.59,3,1.13,6.08,1.54,8.55h.07c.4-2.62,1-5.1,1.69-8.16l2.36-10.1h5.23l2.21,10.36c.57,2.88,1,5.1,1.4,7.78h.07c.4-2.7.91-5,1.49-8L133.84,8.5h5L132.65,32c-4,.87-5.47-.73-6-3.26s-1.6-7.34-1.6-7.34a71.25,71.25,0,0,1-1.27-7.2h-.07c-.43,2.68-.87,4.56-1.53,7.19L119.55,32c-4,.8-5.44-.39-6.22-3.63C112.67,25.6,108.5,8.5,108.5,8.5Z" style="fill: #fff"/>
          <g>
            <path d="M208,27.75V21.47c0-4-1.71-7.52-7.49-7.52a13.57,13.57,0,0,0-6.6,1.58l.94,3.21a9.69,9.69,0,0,1,4.82-1.35c2.93,0,3.41,1.66,3.41,2.72v.26c-6.39,0-10.43,2.2-10.43,6.7a5.32,5.32,0,0,0,5.63,5.34,6.39,6.39,0,0,0,5.14-2.29h.11s.73,3.06,4.75,1.89A25.93,25.93,0,0,1,208,27.75Zm-4.77-2.05a3.13,3.13,0,0,1-3.34,3.22,2.19,2.19,0,0,1-2.37-2.34c0-2.43,2.67-3.1,5.71-3.08Z" style="fill: #fff"/>
            <path d="M153.11,21.47c0-4-1.71-7.52-7.49-7.52a13.57,13.57,0,0,0-6.6,1.58l.94,3.21a9.65,9.65,0,0,1,4.81-1.35c2.94,0,3.42,1.66,3.42,2.72v.26c-6.39,0-10.43,2.2-10.43,6.7a5.32,5.32,0,0,0,5.63,5.34,6.39,6.39,0,0,0,5.14-2.29h.11s.73,3.06,4.75,1.89a25.93,25.93,0,0,1-.28-4.26Zm-4.77,4.23A3.13,3.13,0,0,1,145,28.92a2.19,2.19,0,0,1-2.37-2.34c0-2.43,2.67-3.1,5.71-3.08Z" style="fill: #fff"/>
          </g>
          <rect x="156.29" y="8.5" width="4.78" height="23.51" style="fill: #fff"/>
          <path d="M228.23,8.5v5.56h4.16v4.5h-4.16v6.63c0,2.15.55,3.19,2.18,3.19a7.82,7.82,0,0,0,1.81-.21l.06,3.72a11.06,11.06,0,0,1-3.45.52,5.28,5.28,0,0,1-3.89-1.48c-1-1-1.41-2.7-1.41-5.09V8.5Z" style="fill: #fff"/>
          <path d="M215.52,14.35v3.33h.14a5.19,5.19,0,0,1,4.8-3.73,4.46,4.46,0,0,1,1.09.11v4.62a9.54,9.54,0,0,0-1.42-.12,3.71,3.71,0,0,0-3.89,3.1,6.54,6.54,0,0,0-.11,1.31v9H211.2V14.35Z" style="fill: #fff"/>
          <path d="M169,14.35v2.4H169a5.55,5.55,0,0,1,5.14-2.8,5.05,5.05,0,0,1,4.87,3.16h.07a7.31,7.31,0,0,1,2.24-2.2,6.37,6.37,0,0,1,3.48-1c3.14,0,5.93,2.17,5.93,7.66V32H186V22.33c0-2.78-.94-4.39-2.9-4.39a3,3,0,0,0-2.88,2.16,4.71,4.71,0,0,0-.2,1.43V32H175.2V21.94c0-2.36-.91-4-2.85-4a3.25,3.25,0,0,0-2.91,2.27,4.1,4.1,0,0,0-.23,1.44V32h-4.8V14.35Z" style="fill: #fff"/>
          <path d="M256.37,12.51l-.93-10.6c0-1,1.22-1.91,2.76-1.91S261,.86,261,1.91L260,12.51a2.05,2.05,0,0,1-3.67,0" style="fill: #ffc224"/>
          <path d="M252.47,16.94a1.72,1.72,0,0,0-.06-2.15L243.7,8.68c-.91-.52-2.26.11-3,1.45s-.63,2.82.27,3.35L250.58,18a1.74,1.74,0,0,0,1.89-1" style="fill: #ffc224"/>
          <path d="M263.93,16.94a1.76,1.76,0,0,0,1.9,1l9.65-4.49c.91-.53,1-2,.27-3.35s-2.14-2-3-1.45L264,14.79a1.73,1.73,0,0,0-.07,2.15" style="fill: #ffc224"/>
          <path d="M256.37,28l-.93,10.6c0,1,1.22,1.91,2.76,1.91S261,39.65,261,38.6L260,28a2.06,2.06,0,0,0-3.67,0" style="fill: #ffc224"/>
          <path d="M264,25.72l8.71,6.1c.9.53,2.26-.1,3-1.44s.64-2.82-.27-3.35l-9.65-4.49a1.74,1.74,0,0,0-1.9,1,1.73,1.73,0,0,0,.07,2.15" style="fill: #ffc224"/>
          <path d="M250.58,22.54,240.93,27c-.9.53-1,2-.27,3.35s2.13,2,3,1.44l8.71-6.1a1.72,1.72,0,0,0,.06-2.15,1.73,1.73,0,0,0-1.89-1" style="fill: #ffc224"/>
        </g>
        <g>
          <path d="M11.54,8.81A11.57,11.57,0,1,1,0,20.41,11.55,11.55,0,0,1,11.54,8.81Zm0,20.89a9.32,9.32,0,1,0-9.29-9.29A9.34,9.34,0,0,0,11.54,29.7Z" style="fill: #fff"/>
          <path d="M27,17.23a.54.54,0,0,1,.57-.58c.94,0,1.45.71,1.55,1.67a7.71,7.71,0,0,1,5-1.86c4.3,0,5.36,2.8,5.36,6.62v7.84a.74.74,0,0,1-.7.71h-1a.72.72,0,0,1-.7-.71V22.76c0-2.83-1-4.15-3.15-4.15a6.5,6.5,0,0,0-4.57,2.06V30.92a.74.74,0,0,1-.7.71h-1a.72.72,0,0,1-.7-.71Z" style="fill: #fff"/>
          <path d="M44.48,9.84a.74.74,0,0,1,.71-.71h1a.77.77,0,0,1,.71.71V30.92a.75.75,0,0,1-.71.71h-1a.72.72,0,0,1-.71-.71Z" style="fill: #fff"/>
          <path d="M53.16,38.37,56,31.76,50.46,17.58c-.2-.48,0-.8.57-.8h1.35a.68.68,0,0,1,.65.42L57.24,29h.06l5-11.79a.68.68,0,0,1,.65-.42h1.18c.58,0,.81.36.58.84l-9.28,21.2a.8.8,0,0,1-.65.45h-1C53.19,39.27,52.93,38.89,53.16,38.37Z" style="fill: #fff"/>
          <path d="M79.83,22.21a12.84,12.84,0,0,1,3.18.48c0-2.73-1.29-4.08-3.41-4.08a9.06,9.06,0,0,0-3.43.87c-.39.16-.58,0-.71-.39l-.32-.86c-.13-.45.09-.65.45-.81a9.59,9.59,0,0,1,4.14-1c3.79,0,5.56,2.25,5.56,6.23v8.49a.54.54,0,0,1-.58.58c-1,0-1.47-.74-1.57-1.74a6.47,6.47,0,0,1-4.66,2,4.51,4.51,0,0,1-4.6-4.85C73.88,24.3,76,22.21,79.83,22.21Zm-.93,7.62a5.17,5.17,0,0,0,4.08-2v-3a7.75,7.75,0,0,0-3.15-.57c-2.06,0-3.6,1-3.6,2.89A2.57,2.57,0,0,0,78.9,29.83Z" style="fill: #fff"/>
          <path d="M89.18,18.84a.7.7,0,0,1-.74-.71v-.64a.69.69,0,0,1,.74-.71h2V12.67a.76.76,0,0,1,.71-.71l1-.06a.67.67,0,0,1,.67.7v4.18h4.37a.7.7,0,0,1,.74.71v.64a.72.72,0,0,1-.74.71H93.52v8.77a2,2,0,0,0,2,2.22,4.47,4.47,0,0,0,2.28-.65c.58-.35.81-.06.94.29l.25.65c.19.48.13.73-.25,1a7.55,7.55,0,0,1-3.51.9,4.08,4.08,0,0,1-4.08-4.37V18.84Z" style="fill: #fff"/>
        </g>
      </g>
    </g>
  </g>
</svg>
