<?xml version="1.0" encoding="utf-8"?>
<!-- Generator: Adobe Illustrator 23.0.6, SVG Export Plug-In . SVG Version: 6.00 Build 0)  -->
<svg version="1.1" id="Layer_1" xmlns="http://www.w3.org/2000/svg" xmlns:xlink="http://www.w3.org/1999/xlink" x="0px" y="0px"
	 viewBox="0 0 116.9 33" style="enable-background:new 0 0 116.9 33;" xml:space="preserve">
<style type="text/css">
	.st0{fill:url(#SVGID_1_);}
	.st1{enable-background:new    ;}
	.st2{fill:#0071CE;}
</style>
<g transform="translate(5695 4619)">
	<g transform="translate(-6080.068 -4829)">
		
			<linearGradient id="SVGID_1_" gradientUnits="userSpaceOnUse" x1="140.5704" y1="606.1629" x2="141.1224" y2="605.5699" gradientTransform="matrix(115.748 0 0 -23 -15841.8301 14160)">
			<stop  offset="0" style="stop-color:#F9F9F9"/>
			<stop  offset="1" style="stop-color:#DDDDDD"/>
		</linearGradient>
		<path class="st0" d="M386.3,233l3.9-23H502l-3.9,23H386.3z"/>
		<path d="M502,210H389.1l-4,24l9,9l0-9H498L502,210z M386.3,233l3.7-22h110.9l-3.7,22H386.3z"/>
	</g>
	<g class="st1">
		<path class="st2" d="M-5668.1-4613c1,0,2,0.3,2.5,0.7c0.7,0.6,1,1.5,1,2.5c0,0.5-0.1,0.9-0.2,1.3c-0.3,0.9-0.8,1.4-1.8,1.9
			l2.3,5.6h-1.6l-2-5.2h-2.3v5.2h-1.5v-12H-5668.1z M-5670.1-4607.4h1.8c1.5,0,2.3-0.8,2.3-2.3c0-0.2,0-0.4-0.1-0.5
			c-0.2-1-1-1.5-2.2-1.5h-1.9V-4607.4z"/>
		<path class="st2" d="M-5656.6-4613.1c2,0.6,3,2.7,3,6.1c0,4.1-1.5,6.2-4.2,6.2c-0.4,0-0.9-0.1-1.3-0.2c-1.1-0.3-1.8-1-2.3-2.1
			c-0.4-1-0.7-2.4-0.7-3.9c0-2.3,0.5-4.2,1.5-5.2c0.7-0.7,1.7-1.1,2.8-1.1C-5657.4-4613.3-5657-4613.2-5656.6-4613.1z
			 M-5658.7-4611.9c-1.2,0.5-1.9,2.2-1.9,4.9c0,0.6,0,1.2,0.1,1.7c0.3,2.3,1.2,3.4,2.7,3.4c0.3,0,0.6,0,0.9-0.1
			c1.2-0.4,1.9-2.2,1.9-4.9c0-0.6,0-1.2-0.1-1.6c-0.3-2.3-1.2-3.4-2.6-3.4C-5658.2-4612.1-5658.4-4612-5658.7-4611.9z"/>
		<path class="st2" d="M-5649.2-4613v10.8h4.6v1.2h-6v-12H-5649.2z"/>
		<path class="st2" d="M-5641.2-4613v10.8h4.6v1.2h-6v-12H-5641.2z"/>
		<path class="st2" d="M-5631.5-4613c1.3,0,1.8,0.1,2.4,0.4c0.8,0.4,1.3,1.4,1.3,2.6c0,0.3,0,0.6-0.1,0.9c-0.2,0.8-0.7,1.4-1.7,1.7
			c0.7,0.2,1,0.4,1.4,0.7c0.6,0.6,0.9,1.3,0.9,2.3c0,1.3-0.5,2.2-1.4,2.8c-0.7,0.4-1.4,0.6-2.6,0.6h-3.3v-12H-5631.5z
			 M-5631.7-4607.9c1.7,0,2.4-0.6,2.4-2c0-0.3-0.1-0.6-0.1-0.9c-0.3-0.8-0.8-1.1-2-1.1h-1.8v3.9H-5631.7z M-5631.4-4602.2
			c1.6,0,2.5-0.8,2.5-2.2c0-0.3-0.1-0.6-0.1-0.9c-0.2-0.6-0.7-1.1-1.4-1.3c-0.3-0.1-0.7-0.1-1.3-0.1h-1.6v4.5H-5631.4z"/>
		<path class="st2" d="M-5620.4-4613l3.2,12h-1.5l-0.9-3.4h-3.6l-0.9,3.4h-1.5l3.4-12H-5620.4z M-5621.3-4611.6l-1.5,6h3
			L-5621.3-4611.6z"/>
		<path class="st2" d="M-5607.6-4604.4c-0.5,2.6-1.6,3.7-3.7,3.7c-2.7,0-4.2-2.2-4.2-6.2c0-1.2,0.2-2.3,0.5-3.3c0.6-1.9,2-3,3.8-3
			c0.3,0,0.6,0,0.9,0.1c1.5,0.3,2.3,1.4,2.8,3.6l-1.4,0.3c-0.2-1-0.3-1.5-0.6-1.9c-0.4-0.6-1-0.9-1.7-0.9c-0.2,0-0.5,0-0.7,0.1
			c-1.3,0.4-2,2.1-2,5c0,1.7,0.3,3,0.8,3.9c0.5,0.8,1.1,1.1,1.9,1.1c1.3,0,1.9-0.7,2.3-2.8L-5607.6-4604.4z"/>
		<path class="st2" d="M-5603.4-4613v5.9l4.2-5.9h1.6l-3.2,4.4l3.9,7.6h-1.7l-3.2-6.3l-1.8,2.5v3.8h-1.5v-12H-5603.4z"/>
	</g>
</g>
</svg>
